# AST/ASF file generated using VICON BodyLanguage
# -----------------------------------------------
:version 1.10
:name VICON
:units
  mass 1.0
  length 0.45
  angle deg
:documentation
   .ast/.asf automatically generated from VICON data using
   VICON BodyBuilder and BodyLanguage model FoxedUp or BRILLIANT.MOD
:root
   order TX TY TZ RX RY RZ
   axis XYZ
   position 0 0 0  
   orientation 0 0 0 
:bonedata
  begin
     id 1 
     name lhipjoint
     direction 0.611804 -0.747784 0.257906 
     length 2.29243 
     axis 0 0 0  XYZ
  end
  begin
     id 2 
     name lfemur
     direction 0.34202 -0.939693 0  
     length 7.31159  
     axis 0 0 20  XYZ
    dof rx ry rz
    limits (-160.0 20.0)
           (-70.0 70.0)
           (-60.0 70.0)
  end
  begin
     id 3 
     name ltibia
     direction 0.34202 -0.939693 0   
     length 7.33391   
     axis 0 0 20   XYZ
    dof rx
    limits (-10.0 170.0)
  end
  begin
     id 4 
     name lfoot
     direction 0.122263 -0.335914 0.933924   
     length 1.76083   
     axis -90 7.62852e-016 20   XYZ
    dof rx rz
    limits (-45.0 90.0)
           (-70.0 20.0)
  end
  begin
     id 5 
     name ltoes
     direction 1.53533e-011 -4.2177e-011 1   
     length 0.879206   
     axis -90 7.62852e-016 20   XYZ
    dof rx
    limits (-90.0 20.0)
  end
  begin
     id 6 
     name rhipjoint
     direction -0.646469 -0.721248 0.248754   
     length 2.37677  
     axis 0 0 0  XYZ 
  end
  begin
     id 7 
     name rfemur
     direction -0.34202 -0.939693 0   
     length 7.18623   
     axis 0 0 -20   XYZ
    dof rx ry rz
    limits (-160.0 20.0)
           (-70.0 70.0)
           (-70.0 60.0)
  end
  begin
     id 8 
     name rtibia
     direction -0.34202 -0.939693 0   
     length 7.36567   
     axis 0 0 -20   XYZ
    dof rx
    limits (-10.0 170.0)
 end
 begin
     id 9 
     name rfoot
     direction -0.126681 -0.348054 0.928876   
     length 1.71902  
     axis -90 -7.62852e-016 -20   XYZ
    dof rx rz
    limits (-45.0 90.0)
           (-20.0 70.0)
  end
  begin
     id 10 
     name rtoes
     direction -1.53551e-011 -4.21898e-011 1   
     length 0.857792   
     axis -90 -7.62852e-016 -20   XYZ
    dof rx
    limits (-90.0 20.0)
  end
  begin
     id 11 
     name lowerback
     direction 0.0106509 0.999778 0.0181844   
     length 2.07668   
     axis 0 0 0   XYZ
    dof rx ry rz
    limits (-20.0 45.0)
           (-30.0 30.0)
           (-30.0 30.0)
  end
  begin
     id 12 
     name upperback
     direction -0.00456018 0.999989 -0.000590935   
     length 2.08011   
     axis 0 0 0   XYZ
    dof rx ry rz
    limits (-20.0 45.0)
           (-30.0 30.0)
           (-30.0 30.0)
  end
  begin
     id 13 
     name thorax
     direction -0.00910382 0.999916 -0.00923765   
     length 2.07397   
     axis 0 0 0   XYZ
    dof rx ry rz
    limits (-20.0 45.0)
           (-30.0 30.0)
           (-30.0 30.0)
  end
  begin
     id 14 
     name lowerneck
     direction 0.00171967 0.99778 0.0665733   
     length 1.67556   
     axis 0 0 0   XYZ
    dof rx ry rz
    limits (-20.0 45.0)
           (-30.0 30.0)
           (-30.0 30.0)
  end
  begin
     id 15 
     name upperneck
     direction -0.0143166 0.991302 -0.130828   
     length 1.68462   
     axis 0 0 0   XYZ
    dof rx ry rz
    limits (-20.0 45.0)
           (-30.0 30.0)
           (-30.0 30.0)
  end
  begin
     id 16
     name head
     direction -0.00606378 0.998665 -0.0512995  
     length 1.69269  
     axis 0 0 0   XYZ
    dof rx ry rz
    limits (-20.0 45.0)
           (-30.0 30.0)
           (-30.0 30.0)
  end
  begin
     id 17 
     name lclavicle
     direction 0.9638 0.179341 0.197297  
     length 4.12888  
     axis 0 0 0   XYZ
    dof ry rz
    limits (-20.0 10.0)
           (0.0 20.0)
  end
  begin
     id 18 
     name lhumerus
     direction 1 -4.48972e-011 -2.47351e-027   
     length 5.01834   
     axis -180 -30 -90   XYZ
    dof rx ry rz
    limits (-60.0 90.0)
           (-90.0 90.0)
           (-90.0 90.0)
  end
  begin
     id 19
     name lradius
     direction 1 -4.48965e-011 1.51591e-026   
     length 3.4869   
     axis -180 -30 -90   XYZ
    dof rx
    limits (-10.0 170.0)
  end
  begin
     id 20
     name lwrist
     direction 1 -4.48957e-011 2.70032e-026   
     length 1.74345   
     axis -1.81515e-014 90 90   XYZ
    dof ry
    limits (-180.0 0.0)
 end
  begin
     id 21 
     name lhand
     direction 1 -4.48951e-011 5.40064e-026   
     length 0.76799   
     axis -3.44607e-014 90 90   XYZ
    dof rx rz
    limits (-90.0 90.0)
           (-45.0 45.0)
  end
  begin
     id 22 
     name lfingers
     direction 1 -4.48971e-011 1.08013e-025   
     length 0.619174   
     axis -6.89214e-014 90 90   XYZ
    dof rx
    limits (0.0 90.0)
  end
  begin
     id 23
     name lthumb
     direction 0.707107 -6.34931e-011 0.707107   
     length 0.889013   
     axis -90 45 2.85299e-015   XYZ
    dof rx rz
    limits (-45.0 45.0)
           (-45.0 45.0)
  end
  begin
     id 24 
     name rclavicle
     direction -0.961409 0.252588 0.109054   
     length 4.04305  
     axis 0 0 0   XYZ 
    dof ry rz
    limits (-10.0 20.0)
           (-20.0 0.0)
  end
  begin
     id 25 
     name rhumerus
     direction -1 -4.4897e-011 1.33872e-017  
     length 4.70164   
     axis -180 30 90   XYZ
    dof rx ry rz
    limits (-90.0 60.0)
           (-90.0 90.0)
           (-90.0 90.0)
  end
  begin
     id 26 
     name rradius
     direction -1 -4.48954e-011 1.83844e-026   
     length 3.49911   
     axis -180 30 90   XYZ
    dof rx
    limits (-10.0 170.0)
  end
  begin
     id 27 
     name rwrist
     direction -1 -4.49008e-011 2.70032e-026   
     length 1.74955   
     axis -1.81515e-014 -90 -90   XYZ
    dof ry
    limits (-180.0 0.0)
  end
  begin
     id 28
     name rhand
     direction -1 -4.48916e-011 5.40064e-026   
     length 0.739335   
     axis -3.44607e-014 -90 -90   XYZ
    dof rx rz
    limits (-90.0 90.0)
           (-45.0 45.0)
  end
  begin
     id 29
     name rfingers
     direction -1 -4.48987e-011 1.08013e-025   
     length 0.596071   
     axis -6.89214e-014 -90 -90   XYZ
    dof rx
    limits (0.0 90.0)
  end
  begin
     id 30
     name rthumb
     direction -0.707107 -6.34935e-011 0.707107   
     length 0.855843   
     axis -90 -45 -2.85299e-015   XYZ
    dof rx rz
    limits (-45.0 45.0)
           (-45.0 45.0)
  end
:hierarchy
  begin
    root lhipjoint rhipjoint lowerback
    lhipjoint lfemur
    lfemur ltibia
    ltibia lfoot
    lfoot ltoes
    rhipjoint rfemur
    rfemur rtibia
    rtibia rfoot
    rfoot rtoes
    lowerback upperback
    upperback thorax
    thorax lowerneck lclavicle rclavicle
    lowerneck upperneck
    upperneck head
    lclavicle lhumerus
    lhumerus lradius
    lradius lwrist
    lwrist lhand lthumb
    lhand lfingers
    rclavicle rhumerus
    rhumerus rradius
    rradius rwrist
    rwrist rhand rthumb
    rhand rfingers
  end

#!OML:ASF I:\salsa\salsa 7_09\Patient 1\Session 1\dancermale.ASF
:FULLY-SPECIFIED
:DEGREES
1332
root 1.49617 16.2026 -10.2045 187.244 125.407 181.484
lowerback -6.36302 0.494128 3.67389
upperback -3.56275 0.511501 0.775614
thorax -0.0839397 0.23601 -1.23133
lowerneck -10.9648 1.08736 1.86131
upperneck 29.819 4.04238 -7.60769
head 11.7423 1.32894 -2.58025
rclavicle 1.32242e-013 1.27222e-014
rhumerus -14.7614 -5.89549 -86.8457
rradius 99.9761
rwrist -2.71182
rhand -41.8651 -10.7555
rfingers 7.12502
rthumb -14.7652 -40.2095
lclavicle 1.32242e-013 1.27222e-014
lhumerus 50.5666 3.19345 42.2359
lradius 77.4861
lwrist 48.7481
lhand 0.200952 60.2631
lfingers 7.12502
lthumb 25.7828 1168.54
rfemur 6.2417 3.82534 15.9695
rtibia 31.1511
rfoot -26.7364 -22.1492
rtoes -14.7026
lfemur -33.409 -5.16184 -12.2392
ltibia 51.3212
lfoot 336.728 15.263
ltoes -35.3849
1333
root 1.73102 16.2132 -10.2702 188.171 126.148 182.557
lowerback -6.57889 0.388659 3.11705
upperback -4.05904 0.415161 0.985533
thorax -0.484726 0.192433 -0.709906
lowerneck -10.7082 1.35567 1.60668
upperneck 30.0087 4.66349 -8.03596
head 11.814 1.54019 -2.61871
rclavicle 1.16289e-014 7.95139e-015
rhumerus -13.0557 -7.66558 -83.9246
rradius 96.786
rwrist -7.79147
rhand -34.8238 -8.92506
rfingers 7.12502
rthumb -7.9747 -38.7546
lclavicle 1.16289e-014 7.95139e-015
lhumerus 51.8994 2.72923 41.3367
lradius 79.9005
lwrist 51.067
lhand 0.384131 60.9211
lfingers 7.12502
lthumb 25.9583 1169.17
rfemur 5.66846 4.4591 14.3069
rtibia 32.7691
rfoot -25.2517 -21.3052
rtoes -10.6067
lfemur -31.7475 -3.18603 -13.9195
ltibia 50.1587
lfoot 334.317 13.1455
ltoes -32.09
1334
root 1.97208 16.2409 -10.3445 188.847 126.215 183.471
lowerback -6.61149 -0.0342884 2.59911
upperback -4.55655 -0.095491 1.40417
thorax -0.995622 -0.0517929 -0.0193591
lowerneck -10.4479 1.69928 1.41317
upperneck 30.1851 5.48832 -8.79149
head 11.9105 1.81335 -2.76526
rclavicle 1.21756e-013 6.36111e-015
rhumerus -10.8603 -8.5226 -80.8792
rradius 92.4362
rwrist -13.0202
rhand -27.3549 -7.87491
rfingers 7.12502
rthumb -0.762829 -37.8533
lclavicle 1.21756e-013 6.36111e-015
lhumerus 53.4111 2.23044 40.8562
lradius 81.7935
lwrist 52.6213
lhand 0.116403 61.5237
lfingers 7.12502
lthumb 25.7019 1169.81
rfemur 4.7327 4.18175 12.74
rtibia 35.2501
rfoot -22.6886 -20.7311
rtoes -6.02476
lfemur -30.8033 -2.12626 -15.458
ltibia 49.2766
lfoot 334.435 12.7184
ltoes -33.0575
1335
root 2.22405 16.2778 -10.4193 188.502 125.091 184.321
lowerback -5.85967 -0.760772 2.25934
upperback -4.72133 -1.00981 1.79244
thorax -1.58713 -0.500554 0.531906
lowerneck -10.0615 1.90189 1.46229
upperneck 30.1383 6.06976 -9.70278
head 11.8925 1.99473 -3.04324
rclavicle -1.11319e-014 1.59028e-015
rhumerus -8.52436 -8.62715 -77.8214
rradius 87.3595
rwrist -17.1013
rhand -21.6778 -6.93417
rfingers 7.12502
rthumb 4.71986 -36.8616
lclavicle -1.11319e-014 1.59028e-015
lhumerus 55.4602 1.4343 40.8893
lradius 83.1178
lwrist 53.8076
lhand -0.265005 61.8073
lfingers 7.12502
lthumb 25.3365 989.856
rfemur 4.67091 2.89633 11.5873
rtibia 38.3758
rfoot -19.0931 -20.856
rtoes -2.62716
lfemur -29.2487 -2.59264 -16.8886
ltibia 48.9217
lfoot 334.027 11.9652
ltoes -33.5142
1336
root 2.45598 16.3342 -10.5061 189.938 125.156 186.431
lowerback -5.64118 -1.19236 1.22385
upperback -4.95942 -1.52718 1.96159
thorax -1.92489 -0.730301 1.27145
lowerneck -9.80406 2.20586 1.11596
upperneck 29.8792 6.7599 -10.3153
head 11.8101 2.21593 -3.11699
rclavicle -4.57205e-014 -2.38542e-014
rhumerus -6.10333 -7.66104 -75.0582
rradius 82.4416
rwrist -18.2112
rhand -18.5457 -6.8867
rfingers 7.12502
rthumb 7.74365 -36.7249
lclavicle -4.57205e-014 -2.38542e-014
lhumerus 57.6542 0.842105 41.2611
lradius 83.8208
lwrist 55.2267
lhand -0.819726 61.7518
lfingers 7.12502
lthumb 24.805 989.837
rfemur 2.39517 2.2776 9.34434
rtibia 43.2693
rfoot -15.547 -20.1837
rtoes 4.86188
lfemur -28.2219 -2.23297 -19.1703
ltibia 48.325
lfoot 333.4 11.2815
ltoes -33.5156
1337
root 2.67077 16.3981 -10.5928 190.954 125.564 188.01
lowerback -5.36901 -1.40143 0.588111
upperback -5.10191 -1.7736 2.04221
thorax -2.19841 -0.833784 1.71037
lowerneck -9.58233 2.48466 0.821412
upperneck 29.4822 7.31828 -10.7624
head 11.6662 2.40609 -3.15071
rclavicle -8.74653e-015 -7.95139e-015
rhumerus -4.0083 -6.82189 -72.8397
rradius 77.9655
rwrist -15.3356
rhand -17.8571 -6.49367
rfingers 7.12502
rthumb 8.4082 -36.3063
lclavicle -8.74653e-015 -7.95139e-015
lhumerus 60.2003 0.0786646 41.7356
lradius 83.9223
lwrist 56.8329
lhand -1.77462 61.7401
lfingers 7.12502
lthumb 23.8895 989.726
rfemur -0.689459 2.03892 7.61658
rtibia 48.9963
rfoot -11.5965 -19.6782
rtoes 15.7808
lfemur -26.9527 -1.19324 -21.0214
ltibia 47.3553
lfoot 332.869 10.3087
ltoes -33.4958
1338
root 2.87196 16.4321 -10.6748 190.758 126.123 189.56
lowerback -3.78591 -1.4935 -0.0735055
upperback -4.84648 -1.88255 1.95435
thorax -2.79563 -0.87494 2.02571
lowerneck -9.57818 2.66671 0.821048
upperneck 29.0499 7.68472 -11.2978
head 11.5536 2.52435 -3.29226
rclavicle 7.35503e-015 9.54166e-015
rhumerus -2.38031 -6.47043 -71.327
rradius 73.8762
rwrist -9.66411
rhand -20.4407 -4.8829
rfingers 7.12502
rthumb 5.91433 -34.7804
lclavicle 7.35503e-015 9.54166e-015
lhumerus 63.1315 -0.85787 41.9397
lradius 83.0349
lwrist 57.5763
lhand -2.50983 61.8824
lfingers 7.12502
lthumb 23.1843 989.493
rfemur -2.78954 1.99876 6.07225
rtibia 54.6225
rfoot -7.18877 -20.0674
rtoes 24.3894
lfemur -23.5118 -0.227683 -22.8261
ltibia 45.2007
lfoot 332.625 9.02255
ltoes -31.9187
